<?xml version="1.0" encoding="UTF-8"?><svg id="Layer_1" xmlns="http://www.w3.org/2000/svg" viewBox="0 0 3000 601.29"><defs><style>.cls-1{fill:#fff;}.cls-2{fill:#b4d05f;}</style></defs><path class="cls-1" d="m2921.73,176.2v-37.18h14.26c1.98,0,3.99.02,5.88.63,5.68,1.86,7.66,8.88,5.69,14.12-.67,1.78-1.82,3.34-3.36,4.46-.82.59-1.69,1.03-3.11,1.42,1.06.43,2.38,1.2,3.28,1.88,1.77,1.35,2.79,3.19,3.49,5.27l3.15,9.39-8.84-.18-4.8-11.72c-.65-1.48-1.72-2.05-3.02-2.4,0,0-.54-.02-1.42-.02l-3.97.05v14.26h-7.25Zm7.25-21.37h6.23c.44,0,1.25,0,2.54-.17,3.2-.41,3.74-6.34,1.04-7.94-.93-.55-2.42-.32-3.41-.32h-6.4v8.44Z"/><path class="cls-1" d="m2411.1,295.85c.24,77.45,3.28,183.8,3.28,183.8h-64.26c2.48-59.06,3.82-120.39,3.75-183.8h57.24Z"/><path class="cls-1" d="m2638.3,295.85c.24,77.45,3.27,183.8,3.27,183.8l-63.14-.17s1.01-117.59,2.42-183.63h57.44Z"/><path class="cls-2" d="m2738.47,153.74c-43.8-2.93-82.7,14.21-96.28,62.76-3.02,10.76-3.49,27.52-3.7,40.91-.05,3.05-.09,6.23-.11,9.53h-56.75c.09-2.62.19-4.94.28-6.92.64-13.39.68-34.88-4.06-50.27-9.44-30.72-30.93-53.63-66.57-56.01-53.51-3.58-98.83,29.79-99.98,103.67-.04,3.05-.09,6.23-.11,9.53h-57.44c-.38-50.09-1.64-98.83-3.62-146.17,19.24,19.41,38.49,38.84,57.73,58.25,0,0,31.57-57.19,98.03-65.41,24.55-3.03,49.59-.82,71.43,8.78.53.23,1.06.46,1.58.71,22.77,10.46,41.91,29.13,53.18,58.52,14.3-19.68,50.37-61.75,101.02-68.01,66.47-8.2,137.11,13.11,134.72,125.52-.19,9.17-.35,18.48-.48,27.81h-60.57c.21-8.17.44-14.83.68-19.47,2.39-47.66-15.45-90.16-68.95-93.74Z"/><path class="cls-1" d="m2868.18,479.65h-64.33s.92-113.06,2.26-183.8h60.9c-.73,94.3,1.17,183.8,1.17,183.8Z"/><path class="cls-1" d="m2122.38,487.53c-54.88,0-98.01-19.68-128.91-51.42-30.93-31.76-46.61-76.31-46.61-132.43s15.65-104.36,46.51-138.92c30.78-34.46,72.58-51.93,124.25-51.93,48.32,0,86.59,13.63,113.74,41.84,27.18,28.25,42.48,58.52,40.96,119.06-.15,5.96-.06,10.53-.18,13.57-.08,1.94-.02,7.09-.15,8.9l-256.1-.43h0l-.55,8.4c-.62,9.59-.58,19.22.23,28.8,3.31,39.25,13.7,59.73,32.83,83.64,21.93,27.42,53.29,37.82,93.04,37.82,23.45,0,42.93-5.5,62.23-14.03,16.66-7.37,41.31-24.3,53.82-40.48l-.1,40.32c-19.76,18.17-43.39,30.35-67.49,38.83-21.26,7.48-43.07,8.47-67.52,8.47Zm-5.48-351.61c-29.35,0-52.84,11.22-69.81,33.34-16.73,21.82-29.78,59.37-32.48,100.21h0l198.2.93s8.44-65.61-28.96-108.26c-16.55-18.87-40.33-26.22-66.95-26.22Z"/><path class="cls-1" d="m809.23,120.78l59.58,58.26s32.57-57.2,101.15-65.41c68.58-8.21,140.87,21.98,141.4,133.46s-1.99,232.56-1.99,232.56h-63.16s1.59-179.34,3.57-219.46c1.99-40.12-19.07-102.88-74.28-106.45-55.21-3.57-104.07,29.79-105.26,103.67-1.19,73.88,3.18,222.24,3.18,222.24h-64.21V120.78Z"/><path class="cls-1" d="m1493.55,480.24l-59.58-58.26s-32.57,57.2-101.15,65.41c-68.58,8.21-140.87-21.98-141.4-133.46-.53-111.48,1.99-232.56,1.99-232.56h63.16s-1.59,179.34-3.57,219.46c-1.99,40.12,19.07,102.88,74.28,106.45,55.21,3.57,104.07-29.79,105.26-103.67,1.19-73.88-3.18-222.24-3.18-222.24h64.21v358.87Z"/><path class="cls-1" d="m1865.26,121.04h48.19s-138.49,314.32-148.55,356.69h-50.84l-142.73-356.37h70.97s46.61,159.09,110.95,290.17c0,0,63.16-144.58,112.01-290.49Z"/><path class="cls-1" d="m2934.73,192.07c-18.51,0-33.56-15.06-33.56-33.56s15.06-33.56,33.56-33.56,33.56,15.06,33.56,33.56-15.06,33.56-33.56,33.56Zm0-60.37c-14.78,0-26.81,12.03-26.81,26.81s12.03,26.81,26.81,26.81,26.81-12.03,26.81-26.81-12.03-26.81-26.81-26.81Z"/><polygon class="cls-1" points="76.08 489.24 31.71 442.92 355.18 133.11 503.42 283.06 457.8 328.16 353.95 223.11 76.08 489.24"/><polygon class="cls-2" points="451.95 477.81 303.71 327.86 349.33 282.76 453.18 387.81 731.05 121.68 775.42 168.01 451.95 477.81"/></svg>