<?xml version="1.0" encoding="UTF-8"?><svg id="Layer_2" xmlns="http://www.w3.org/2000/svg" viewBox="0 0 2936.59 377.19"><defs><style>.cls-1{fill:#2f516d;}.cls-2{fill:#b4d05f;}</style></defs><g id="Layer_1-2"><path class="cls-1" d="M2850.99,80.59v-34.27h13.93c1.93,0,3.9.02,5.75.58,5.55,1.71,7.48,8.18,5.56,13.01-.65,1.64-1.78,3.08-3.28,4.11-.8.54-1.65.95-3.04,1.31,1.04.4,2.33,1.11,3.21,1.73,1.73,1.24,2.73,2.94,3.41,4.86l3.08,8.65-8.64-.17-4.69-10.8c-.64-1.36-1.68-1.89-2.95-2.21,0,0-.53-.02-1.39-.02l-3.88.05v13.14h-7.08l.02.02ZM2858.07,60.89h6.09c.43,0,1.22,0,2.48-.16,3.13-.38,3.65-5.84,1.02-7.32-.91-.51-2.36-.29-3.33-.29h-6.25v7.78h0Z"/><path class="cls-1" d="M2352.03,190.87c.23,71.38,3.21,169.4,3.21,169.4h-62.79c2.42-54.43,3.73-110.96,3.66-169.4h55.93,0Z"/><path class="cls-1" d="M2574.04,190.87c.23,71.38,3.2,169.4,3.2,169.4l-61.7-.16s.99-108.38,2.36-169.25h56.14Z"/><path class="cls-2" d="M2671.92,59.89c-42.8-2.7-80.81,13.1-94.08,57.84-2.95,9.92-3.41,25.36-3.62,37.71-.05,2.81-.09,5.74-.11,8.78h-55.45c.09-2.41.19-4.55.27-6.38.63-12.34.66-32.15-3.97-46.33-9.22-28.31-30.22-49.43-65.05-51.62-52.29-3.3-96.57,27.46-97.69,95.55-.04,2.81-.09,5.74-.11,8.78h-56.13c-.37-46.17-1.6-91.09-3.54-134.72,18.8,17.89,37.61,35.8,56.41,53.69,0,0,30.85-52.71,95.79-60.29,23.99-2.79,48.46-.76,69.8,8.09.52.21,1.04.42,1.54.65,22.25,9.64,40.95,26.85,51.96,53.94,13.97-18.14,49.22-56.91,98.71-62.68,64.95-7.56,133.98,12.08,131.64,115.69-.19,8.45-.34,17.03-.47,25.63h-59.19c.21-7.53.43-13.67.66-17.94,2.34-43.93-15.1-83.1-67.37-86.4h-.03Z"/><path class="cls-1" d="M2798.67,360.27h-62.86s.9-104.2,2.21-169.4h59.51c-.71,86.91,1.14,169.4,1.14,169.4h0Z"/><path class="cls-1" d="M2069.92,367.53c-53.63,0-95.77-18.14-125.96-47.39-30.22-29.27-45.54-70.33-45.54-122.06s15.29-96.19,45.45-128.04c30.08-31.76,70.92-47.86,121.41-47.86,47.22,0,84.61,12.56,111.14,38.56,26.56,26.04,41.51,53.94,40.02,109.73-.15,5.49-.06,9.71-.18,12.51-.08,1.79-.02,6.53-.15,8.2l-250.24-.4h0l-.54,7.74c-.61,8.84-.57,17.71.22,26.54,3.23,36.18,13.39,55.05,32.08,77.09,21.43,25.27,52.07,34.86,90.91,34.86,22.91,0,41.95-5.07,60.81-12.93,16.28-6.79,40.37-22.4,52.59-37.31l-.1,37.16c-19.31,16.75-42.4,27.97-65.95,35.79-20.77,6.89-42.09,7.81-65.98,7.81h0ZM2064.56,43.47c-28.68,0-51.63,10.34-68.21,30.73-16.35,20.11-29.1,54.72-31.74,92.36h0l193.67.86s8.25-60.47-28.3-99.78c-16.17-17.39-39.41-24.17-65.42-24.17h0Z"/><path class="cls-1" d="M786.79,29.51l58.22,53.7s31.83-52.72,98.85-60.29c67.01-7.57,137.65,20.26,138.17,123.01.52,102.75-1.94,214.34-1.94,214.34h-61.72s1.55-165.29,3.49-202.27c1.94-36.98-18.63-94.82-72.58-98.11-53.95-3.29-101.69,27.46-102.85,95.55-1.16,68.09,3.11,204.83,3.11,204.83h-62.74V29.51h0Z"/><path class="cls-1" d="M1455.46,360.81l-58.22-53.7s-31.83,52.72-98.84,60.29c-67.01,7.57-137.65-20.26-138.17-123.01s1.94-214.34,1.94-214.34h61.72s-1.55,165.29-3.49,202.27c-1.94,36.98,18.63,94.82,72.58,98.11,53.95,3.29,101.69-27.46,102.85-95.55,1.16-68.09-3.11-204.83-3.11-204.83h62.74v330.76h-.02Z"/><path class="cls-1" d="M1818.67,29.75h47.09s-135.32,289.7-145.15,328.75h-49.68L1531.46,30.05h69.35s45.54,146.63,108.41,267.44c0,0,61.72-133.25,109.45-267.74h0Z"/><path class="cls-1" d="M2863.69,95.22c-18.09,0-32.79-13.88-32.79-30.93s14.72-30.93,32.79-30.93,32.79,13.88,32.79,30.93-14.72,30.93-32.79,30.93ZM2863.69,39.58c-14.44,0-26.2,11.09-26.2,24.71s11.75,24.71,26.2,24.71,26.2-11.09,26.2-24.71-11.75-24.71-26.2-24.71Z"/><polygon class="cls-1" points="70.4 369.11 27.05 326.41 343.12 40.88 487.97 179.08 443.39 220.65 341.92 123.83 70.4 369.11"/><polygon class="cls-2" points="437.68 358.57 292.83 220.37 337.4 178.8 438.88 275.62 710.4 30.34 753.75 73.04 437.68 358.57"/></g></svg>